<svg id="Layer_1" enable-background="new 0 0 512 512" height="512" viewBox="0 0 512 512" width="512" xmlns="http://www.w3.org/2000/svg"><g><circle cx="256" cy="256" fill="#97d729" r="256"/><g><path d="m465.602 427.221h-410.61c-18.386 0-33.291-14.905-33.291-33.291v-241.849c0-18.386 14.905-33.291 33.291-33.291h410.609c18.386 0 33.291 14.905 33.291 33.291v241.849c.001 18.386-14.904 33.291-33.29 33.291z" fill="#965028"/><path d="m133.2 387.596-58.318-235.515c0-18.386 14.905-33.291 33.291-33.291h-53.181c-18.386 0-33.291 14.905-33.291 33.291v241.849c0 18.386 14.905 33.292 33.291 33.292h78.208z" fill="#7d401d"/><path d="m465.602 387.596h-410.61c-18.386 0-33.291-14.905-33.291-33.291v-241.849c0-18.386 14.905-33.291 33.291-33.291h410.609c18.386 0 33.291 14.905 33.291 33.291v241.849c.001 18.386-14.904 33.291-33.29 33.291z" fill="#a56941"/></g><g><path d="m220.32 357.916h-101.429c-28.633 0-51.844-23.211-51.844-51.844 0-28.633 23.211-51.844 51.844-51.844h101.429c28.633 0 51.844 23.211 51.844 51.844 0 28.633-23.212 51.844-51.844 51.844z" fill="#fff"/><path d="m260.8 340.511h-182.39c-7.573 0-13.712-6.139-13.712-13.712v-41.454c0-7.573 6.139-13.712 13.712-13.712h182.39c7.573 0 13.712 6.139 13.712 13.712v41.454c0 7.573-6.139 13.712-13.712 13.712z" fill="#fd4755"/><path d="m86.09 326.799v-41.455c0-7.573 6.139-13.712 13.712-13.712h-21.392c-7.573 0-13.712 6.139-13.712 13.712v41.455c0 7.573 6.139 13.712 13.712 13.712h21.392c-7.573 0-13.712-6.139-13.712-13.712z" fill="#e33442"/><g fill="#ff978a"><path d="m112.966 271.633h-12.615l-19.747 68.878h12.616z"/><path d="m149.167 271.633h-12.615l-19.746 68.878h12.615z"/><path d="m185.369 271.633h-12.615l-19.747 68.878h12.616z"/><path d="m221.57 271.633h-12.615l-19.746 68.878h12.615z"/><path d="m257.772 271.633h-12.616l-19.746 68.878h12.615z"/></g></g><g><g><g><path d="m72.381 200.004v-71.194c0-10.521 8.529-19.05 19.05-19.05h71.194c10.521 0 19.05 8.529 19.05 19.05v71.194c0 10.521-8.529 19.05-19.05 19.05h-71.194c-10.521 0-19.05-8.529-19.05-19.05z" fill="#fff"/></g><path d="m106.201 177.974v-27.133c0-4.01 3.25-7.26 7.26-7.26h27.133c4.01 0 7.26 3.25 7.26 7.26v27.133c0 4.01-3.25 7.26-7.26 7.26h-27.133c-4.009 0-7.26-3.251-7.26-7.26z" fill="#fd4755"/><path d="m113.461 155.171h27.133c4.01 0 7.26 3.25 7.26 7.26v-11.59c0-4.01-3.25-7.26-7.26-7.26h-27.133c-4.01 0-7.26 3.25-7.26 7.26v11.59c0-4.009 3.251-7.26 7.26-7.26z" fill="#e33442"/><g><path d="m166.673 119c3.177 0 5.762 2.585 5.762 5.762v79.29c0 3.177-2.585 5.762-5.762 5.762h-79.29c-3.177 0-5.762-2.585-5.762-5.762v-79.29c0-3.177 2.585-5.762 5.762-5.762zm0-15.454h-79.29c-11.717 0-21.216 9.499-21.216 21.216v79.29c0 11.717 9.499 21.216 21.216 21.216h79.29c11.717 0 21.216-9.499 21.216-21.216v-79.29c0-11.717-9.499-21.216-21.216-21.216z" fill="#433f43"/></g></g><g><g><g><path d="m219.477 200.903-.506-71.192c-.075-10.521 8.393-19.11 18.914-19.185l71.192-.506c10.521-.075 19.11 8.393 19.185 18.914l.506 71.192c.075 10.521-8.393 19.11-18.914 19.185l-71.192.506c-10.521.075-19.11-8.393-19.185-18.914z" fill="#fff"/></g><path d="m253.14 178.632-.193-27.132c-.029-4.01 3.199-7.283 7.208-7.312l27.132-.193c4.01-.029 7.283 3.199 7.312 7.208l.193 27.132c.029 4.01-3.199 7.283-7.208 7.312l-27.132.193c-4.01.029-7.284-3.198-7.312-7.208z" fill="#97d729"/><path d="m260.238 155.779 27.132-.193c4.01-.029 7.283 3.199 7.311 7.208l-.082-11.59c-.029-4.01-3.302-7.237-7.311-7.208l-27.132.193c-4.01.029-7.237 3.302-7.208 7.311l.082 11.59c-.029-4.009 3.198-7.283 7.208-7.311z" fill="#82bd1c"/><g><path d="m313.237 119.23c3.152 0 5.735 2.567 5.757 5.721l.564 79.288c.023 3.177-2.544 5.781-5.721 5.803l-79.332.564c-3.153 0-5.737-2.567-5.759-5.721l-.564-79.288c-.023-3.177 2.544-5.781 5.721-5.803l79.29-.564h.042zm-.002-15.454c-.051 0-.103 0-.154.001l-79.288.564c-11.717.083-21.148 9.649-21.065 21.367l.564 79.288c.083 11.666 9.565 21.065 21.212 21.065.051 0 .103 0 .154-.001l79.288-.564c11.717-.083 21.148-9.649 21.065-21.366l-.564-79.288c-.083-11.667-9.565-21.067-21.212-21.066z" fill="#433f43"/></g></g><path d="m361.076 191.532-.39-54.785c-.079-11.12 8.871-20.198 19.991-20.277l54.785-.39c11.12-.079 20.198 8.871 20.277 19.991l.39 54.785c.079 11.12-8.871 20.198-19.991 20.277l-54.785.39c-11.119.079-20.197-8.871-20.277-19.991z" fill="#97d729"/><path d="m390.924 174.045-.144-20.238c-.029-4.108 3.277-7.461 7.385-7.491l20.238-.144c4.108-.029 7.461 3.277 7.491 7.385l.144 20.238c.029 4.108-3.277 7.461-7.385 7.491l-20.238.144c-4.109.029-7.462-3.277-7.491-7.385z" fill="#aef72f"/></g></g><g><path d="m329.677 277.019c0 23.346-25.36 42.271-25.36 42.271s-25.36-18.925-25.36-42.271 25.36-42.271 25.36-42.271 25.36 18.925 25.36 42.271z" fill="#ff7e6e"/><path d="m352.714 307.269c-16.508 16.508-47.822 11.958-47.822 11.958s-4.55-31.314 11.958-47.822 47.822-11.958 47.822-11.958 4.55 31.315-11.958 47.822z" fill="#ff978a"/></g><g><path d="m497.424 212.033-174.153 280.109c-4.084 6.569-12.72 8.583-19.288 4.499-6.569-4.084-8.583-12.72-4.499-19.289.116-.186.263-.409.386-.588l187.992-271.014c1.801-2.597 5.367-3.242 7.964-1.44 2.513 1.743 3.19 5.152 1.598 7.723z" fill="#dcbe82"/><path d="m495.445 204.073c-2.555-1.494-5.868-.796-7.583 1.677l-187.992 271.014c-.123.179-.27.402-.386.588-3.967 6.381-2.166 14.7 3.96 18.915z" fill="#c8a06e"/><path d="m323.271 492.142 41.869-67.342c-4.177 2.015-9.258 1.927-13.488-.703-4.441-2.761-6.791-7.604-6.591-12.481l-45.191 65.149c-.123.179-.27.402-.386.588-4.084 6.569-2.07 15.205 4.499 19.289 6.569 4.083 15.204 2.068 19.288-4.5z" fill="#fe646f"/><path d="m298.597 479.054c-.119.267-.244.534-.345.805-.075.201-.13.405-.196.607-.074.23-.155.458-.217.689-.062.235-.105.472-.155.709-.042.201-.092.4-.125.602-.044.269-.069.538-.097.808-.018.169-.043.338-.055.507-.02.299-.021.599-.022.898-.001.138-.008.276-.004.414.009.328.036.654.068.98.01.106.015.212.027.318.042.353.103.703.172 1.052.015.075.025.151.041.225.08.372.178.741.288 1.106.014.048.026.096.041.144.121.385.259.766.413 1.14.01.025.019.049.029.074.163.391.344.775.543 1.151.004.007.007.014.011.021 1.026 1.932 2.516 3.648 4.429 4.963l47.663-72.535c-4.085-2.809-6.238-7.444-6.046-12.116l-45.191 65.149c-.123.179-.27.402-.386.588-.252.405-.479.817-.685 1.236-.074.152-.131.31-.201.465z" fill="#e33442"/></g><g><path d="m481.441 213.593-232.3 234.151c-5.448 5.491-14.315 5.526-19.806.079-5.491-5.448-5.526-14.315-.079-19.806.154-.155.348-.34.508-.487l243.759-222.196c2.336-2.129 5.955-1.962 8.084.374 2.062 2.26 1.96 5.734-.166 7.885z" fill="#dcbe82"/><path d="m481.29 205.392c-2.157-2.027-5.542-2.086-7.766-.059l-243.76 222.197c-.16.147-.353.331-.508.487-5.292 5.334-5.394 13.845-.363 19.322z" fill="#c8a06e"/><path d="m249.141 447.744 55.848-56.293c-4.521 1.032-9.455-.189-12.991-3.697-3.712-3.683-4.921-8.928-3.638-13.637l-58.597 53.413c-.16.147-.353.331-.508.487-5.448 5.491-5.412 14.359.079 19.806 5.492 5.447 14.36 5.412 19.807-.079z" fill="#fe646f"/><path d="m228.013 429.477c-.176.234-.357.466-.516.708-.118.179-.217.365-.326.548-.123.207-.253.412-.365.624-.113.215-.208.437-.309.656-.086.186-.179.37-.257.559-.103.252-.187.509-.275.766-.055.161-.117.32-.166.482-.086.287-.154.579-.222.87-.031.134-.069.267-.097.402-.065.322-.111.646-.153.97-.014.105-.033.21-.044.316-.037.354-.057.709-.067 1.064-.002.076-.009.152-.01.229-.005.381.008.762.034 1.142.003.05.004.1.008.149.032.403.082.804.148 1.203.004.026.007.052.012.078.072.418.163.833.272 1.243.002.008.004.015.006.023.568 2.112 1.638 4.118 3.209 5.827l62.656-60.062c-3.354-3.651-4.418-8.649-3.188-13.16l-58.597 53.413c-.16.147-.353.331-.508.487-.336.338-.649.69-.943 1.052-.109.135-.2.276-.302.411z" fill="#e33442"/></g></g></svg>