<svg id="Capa_1" enable-background="new 0 0 506.717 506.717" height="512" viewBox="0 0 506.717 506.717" width="512" xmlns="http://www.w3.org/2000/svg"><path d="m89.447 482.668h-47.328c-5.868 0-10.625-4.757-10.625-10.625v-90.313h68.579v90.313c-.001 5.868-4.757 10.625-10.626 10.625z" fill="#914d24"/><path d="m392.485 482.668h-47.329c-5.868 0-10.625-4.757-10.625-10.625v-90.313h68.579v90.313c0 5.868-4.757 10.625-10.625 10.625z" fill="#804231"/><path d="m457.59 343.749v58.72c0 5.52-4.48 10-10 10h-437.59c-5.52 0-10-4.48-10-10v-58.72c0-5.53 4.48-10 10-10h437.59c5.52 0 10 4.469 10 10z" fill="#ff9f00"/><path d="m457.59 343.749v58.72c0 5.52-4.48 10-10 10h-218.79v-78.72h218.79c5.52 0 10 4.469 10 10z" fill="#ff712f"/><path d="m415.73 243.799c0 49.652-40.246 89.95-89.94 89.95h-193.99c-49.67 0-89.94-40.27-89.94-89.95 0-49.64 40.259-89.95 89.94-89.95h193.99c49.566 0 89.94 40.188 89.94 89.95z" fill="#fff5f5"/><path d="m415.73 243.799c0 49.652-40.246 89.95-89.94 89.95h-97v-179.9h97c49.566 0 89.94 40.188 89.94 89.95z" fill="#f3e5cb"/><path d="m425.79 147.828c-22.39 7.58-42.19 14.36-61.54 20.39-10.24 3.2-20.35 6.17-30.63 8.96-17.63 4.76-35.78 8.94-56.02 12.58-15.46 2.78-31.59 5.11-48.8 6.94-15.33 1.63-31.51 2.87-48.82 3.67-16.08.74-33.12 1.1-51.36 1.06-10.5-.01-21.4-.17-32.74-.47-6.75-.17-13.65-.4-20.72-.68-32.47-1.29-56.87-30.11-52.78-62.37 3.66-28.9 29.24-50.5 59.19-48.29 7.92.61 15.51 1.18 22.83 1.74 11.71.87 22.69 1.67 33 2.41 15.58 1.1 29.67 2.03 42.58 2.76 18.36 1.05 34.33 1.74 48.82 1.99 18 .33 33.7.01 48.8-1.03 14.54-1 27.68-2.46 41.53-4.6 9.93-1.52 20.21-3.39 31.64-5.7 17.89-3.59 38.55-8.22 64.96-14.18z" fill="#ff6c6c"/><path d="m425.79 147.828c-22.39 7.58-42.19 14.36-61.54 20.39-10.24 3.2-20.35 6.17-30.63 8.96-17.63 4.76-35.78 8.94-56.02 12.58-15.46 2.78-31.59 5.11-48.8 6.94v-98.18c18 .33 33.7.01 48.8-1.03 14.54-1 27.68-2.46 41.53-4.6 9.93-1.52 20.21-3.39 31.64-5.7 17.89-3.59 38.55-8.22 64.96-14.18z" fill="#ff0059"/><path d="m277.6 97.488v236.25h-97.62v-237.209c18.35 1.05 34.32 1.74 48.81 1.99 18.01.33 33.71.01 48.81-1.031z" fill="#007a9f"/><path d="m277.6 97.488v236.25h-48.81v-235.219c18.01.33 33.71.01 48.81-1.031z" fill="#00607f"/><path d="m128.618 201.429c-10.498-.011-21.399-.17-32.736-.468-9.393-48.131 3.846-95.221 8.521-109.607 11.709.871 22.684 1.679 33.001 2.412-11.748 31.558-17.227 73.895-8.786 107.663z" fill="#ffa8b4"/><path d="m364.248 168.215c-10.242 3.198-20.347 6.173-30.632 8.967-9.849-28.528-13.324-61.508-14.482-84.299 9.924-1.52 20.209-3.389 31.631-5.695 1.094 26.712 5.121 57.493 13.483 81.027z" fill="#ff6c6c"/><path d="m100.072 245.605c-8.284 0-15 6.716-15 15v5.313c0 8.284 6.716 15 15 15s15-6.716 15-15v-5.313c0-8.285-6.715-15-15-15z" fill="#f3e5cb"/><path d="m359.322 203.814c-8.284 0-15 6.716-15 15v5.313c0 8.284 6.716 15 15 15s15-6.716 15-15v-5.313c0-8.285-6.715-15-15-15z" fill="#fff5f5"/><path d="m334.531 256.23c-8.284 0-15 6.716-15 15v5.313c0 8.284 6.716 15 15 15s15-6.716 15-15v-5.313c0-8.285-6.716-15-15-15z" fill="#fff5f5"/><path d="m448.534 100.761c-.547-1.938.357-3.983 2.151-4.897 24.404-12.426 40.08-38.37 38.56-66.77-.166-3.104-2.944-5.412-6.024-4.997l-22.855 3.077c-38.734 5.214-65.907 40.842-60.692 79.576v.001c5.215 38.734 40.842 65.907 79.576 60.692l22.855-3.077c3.078-.414 5.149-3.373 4.489-6.408-6.047-27.815-28.052-48.715-54.902-54.227-1.524-.313-2.735-1.472-3.158-2.97z" fill="#ffa8b4"/></svg>