<svg id="Capa_1" enable-background="new 0 0 497 497" height="512" viewBox="0 0 497 497" width="512" xmlns="http://www.w3.org/2000/svg"><g><path d="m173.95 389.317h-8.567c-4.418 0-8-3.582-8-8v-8.567c0-13.724-11.126-24.85-24.85-24.85h-24.85c-13.724 0-24.85 11.126-24.85 24.85v8.567c0 4.418-3.582 8-8 8h-.283c-13.724 0-24.85 11.126-24.85 24.85v21.567h149.1v-21.567c0-13.725-11.126-24.85-24.85-24.85z" fill="#b3e59f"/><path d="m173.95 389.317h-8.567c-4.418 0-8-3.582-8-8v-8.567c0-13.724-11.126-24.85-24.85-24.85h-23c13.724 0 24.85 11.126 24.85 24.85v8.567c0 4.418 3.582 8 8 8h8.567c13.724 0 24.85 11.126 24.85 24.85v21.567h23v-21.567c0-13.725-11.126-24.85-24.85-24.85z" fill="#8ad689"/><g fill="#8ad689"><path d="m99.4 389.316c4.143 0 7.5-3.357 7.5-7.5s-3.357-7.5-7.5-7.5h-16.567v7c0 4.417-3.579 7.997-7.995 8z"/><path d="m132.533 389.316h32.845c-4.416-.003-7.995-3.583-7.995-8v-7h-24.85c-4.143 0-7.5 3.357-7.5 7.5s3.358 7.5 7.5 7.5z"/></g><g><path d="m91.4 497h-33.7c-4.418 0-8-3.582-8-8v-30.133h49.7v30.133c0 4.418-3.582 8-8 8z" fill="#eac89f"/><path d="m439.3 497h-33.7c-4.418 0-8-3.582-8-8v-30.133h49.7v30.133c0 4.418-3.582 8-8 8z" fill="#eac89f"/><path d="m472.433 463.867h-447.866c-4.418 0-8-3.582-8-8v-17.133c0-4.418 3.582-8 8-8h447.867c4.418 0 8 3.582 8 8v17.133c-.001 4.418-3.582 8-8.001 8z" fill="#f4dbb3"/><path d="m472.433 430.733h-23c4.418 0 8 3.582 8 8v17.133c0 4.418-3.582 8-8 8h23c4.418 0 8-3.582 8-8v-17.133c0-4.418-3.581-8-8-8z" fill="#eac89f"/></g><path d="m447.3 8v17.133c0 4.418-3.582 8-8 8h-365.033c-4.418 0-8-3.582-8-8v-17.133c0-4.418 3.582-8 8-8h365.033c4.418 0 8 3.582 8 8z" fill="#f4dbb3"/><g><path d="m298.2 265.067h66.267c45.748 0 82.833 37.086 82.833 82.833s-37.086 82.833-82.833 82.833h-66.267z" fill="#6f6571"/><path d="m364.467 265.067h-23c45.748 0 82.833 37.086 82.833 82.833s-37.086 82.833-82.833 82.833h23c45.748 0 82.833-37.086 82.833-82.833s-37.086-82.833-82.833-82.833z" fill="#5e5161"/><circle cx="298.2" cy="347.9" fill="#e6dedd" r="82.833"/><path d="m435.741 390.1h-38.141c-4.143 0-7.5 3.357-7.5 7.5s3.357 7.5 7.5 7.5h26.748c4.338-4.541 8.169-9.567 11.393-15z" fill="#5e5161"/><circle cx="298.2" cy="347.9" fill="#faf8fa" r="82.833"/><circle cx="298.2" cy="347.9" fill="#e55964" r="41.417"/><path d="m281.634 323.833h-17.13c-3.17 4.43-5.486 9.508-6.713 15h23.843c4.143 0 7.5-3.357 7.5-7.5s-3.358-7.5-7.5-7.5z" fill="#db404f"/><path d="m338.609 356.967h-23.842c-4.143 0-7.5 3.357-7.5 7.5s3.357 7.5 7.5 7.5h17.129c3.169-4.43 5.486-9.508 6.713-15z" fill="#db404f"/><path d="m298.2 265.067c-3.904 0-7.74.29-11.5.813 40.301 5.601 71.333 40.177 71.333 82.021 0 41.843-31.032 76.42-71.333 82.021 3.76.522 7.596.813 11.5.813 45.747 0 82.833-37.086 82.833-82.833s-37.085-82.835-82.833-82.835z" fill="#eceaec"/><path d="m298.2 306.483c-3.992 0-7.848.576-11.5 1.63 17.277 4.986 29.917 20.905 29.917 39.786 0 18.882-12.64 34.801-29.917 39.787 3.652 1.054 7.508 1.63 11.5 1.63 22.874 0 41.417-18.543 41.417-41.417 0-22.873-18.543-41.416-41.417-41.416z" fill="#db404f"/></g><g><path d="m165.667 33.133h66.267c35.428 0 65.661 22.241 77.498 53.522l5.22 33.723c-2.293 43.697-38.45 78.422-82.718 78.422h-66.267z" fill="#443737"/><path d="m165.667 33.133h66.267c35.428 0 65.661 22.241 77.498 53.522l5.22 33.723c-2.293 43.697-38.45 78.422-82.718 78.422h-66.267z" fill="#6f6571"/><path d="m309.431 86.655c-11.837-31.281-42.07-53.522-77.498-53.522h-22.932c35.428 0 65.66 22.241 77.498 53.522l5.22 33.723c-2.293 43.697-38.45 78.422-82.718 78.422h22.932c44.268 0 80.425-34.725 82.718-78.422z" fill="#5e5161"/><path d="m206.782 110.943c.199 1.647.302 3.323.302 5.024 0 22.874-18.543 41.417-41.417 41.417s-41.417-18.543-41.417-41.417c0-4.206.627-8.266 1.793-12.091v-7h80.739z" fill="#58883c"/><path d="m98.011 68.163c15.002-21.194 39.713-35.03 67.656-35.03 33.111 0 61.684 19.427 74.943 47.506l7.878 33.948c.008.459.011.919.011 1.38 0 45.748-37.086 82.833-82.833 82.833s-82.833-37.086-82.833-82.833c0-5.382.513-10.644 1.493-15.74z" fill="#faf8fa"/><path d="m206.782 110.943c.199 1.647.302 3.323.302 5.024 0 22.874-18.543 41.417-41.417 41.417s-41.417-18.543-41.417-41.417c0-4.206.627-8.266 1.793-12.091v-7h80.739z" fill="#e55964"/><path d="m206.782 110.943v-14.067h-23v14.067c.199 1.647.302 3.323.302 5.024 0 18.882-12.64 34.801-29.917 39.786 3.653 1.054 7.508 1.63 11.5 1.63 22.874 0 41.417-18.543 41.417-41.417-.001-1.7-.103-3.376-.302-5.023z" fill="#db404f"/><path d="m206.076 125.033h-23.842c-4.143 0-7.5 3.357-7.5 7.5s3.357 7.5 7.5 7.5h17.129c3.169-4.43 5.486-9.507 6.713-15z" fill="#db404f"/><path d="m303.219 158.167h-38.153c-4.143 0-7.5 3.357-7.5 7.5s3.357 7.5 7.5 7.5h26.775c4.336-4.539 8.157-9.57 11.378-15z" fill="#5e5161"/><path d="m248.489 114.587-7.879-33.948c-13.259-28.078-41.833-47.505-74.943-47.505-3.903 0-7.74.279-11.5.802 28.132 3.908 51.747 21.936 63.443 46.704l7.879 33.948c.007.459.011.919.011 1.38 0 41.843-31.032 76.42-71.333 82.021 3.76.522 7.596.813 11.5.813 45.748 0 82.833-37.086 82.833-82.833 0-.463-.004-.923-.011-1.382z" fill="#eceaec"/></g><path d="m373.533 0h15v33.133h-15z" fill="#eac89f"/><path d="m439.3 0h-23c4.418 0 8 3.582 8 8v17.133c0 4.418-3.582 8-8 8h23c4.418 0 8-3.582 8-8v-17.133c0-4.418-3.582-8-8-8z" fill="#eac89f"/><path d="m73.8 99.306c-4.557-.399-7.929-4.416-7.53-8.974l1.444-16.504c.399-4.557 4.416-7.929 8.974-7.53l363.08 31.765c4.557.399 7.929 4.416 7.53 8.974l-1.444 16.504c-.399 4.557-4.416 7.929-8.974 7.53z" fill="#f4dbb3"/><g fill="#eac89f"><path d="m374.533 92.357-2.888 33.006v.001l14.943 1.307 2.889-33.006v-.001z"/><path d="m439.767 98.064-21.79-1.906c3.911.95 6.653 4.628 6.292 8.76l-1.444 16.504c-.399 4.557-4.416 7.928-8.974 7.53l23.029 2.12c4.557.399 8.575-2.973 8.974-7.53l1.444-16.504c.398-4.558-2.974-8.575-7.531-8.974z"/></g></g></svg>